<svg xmlns="http://www.w3.org/2000/svg" viewBox="0 0 291.042 171.979" height="650" width="1100">
  <style>.Y{font-style:italic}.Z{fill:#b58900}.a{fill:#859900}.b{fill:#d33682}.c{fill:#268bd2}.d{fill:#cb4b16}.e{fill:#6c71c4}.f{fill:#2aa198}.g{fill:#dc322f}.h{cursor:default;user-select:none;}.i{font-weight:700}.j{font-size:11.451px}.k{font-family:ui-monospace, SFMono-Regular, SF Mono, DejaVu Sans Mono, Consolas, Liberation Mono, Menlo, monospace;}</style>
  <text xml:space="preserve" x="0" y="-158.58" class="h i j k">
    <animateTransform attributeName="transform" attributeType="XML" type="translate" from="0 0" to="0 171.97917" dur="10s" repeatCount="indefinite" />
    <tspan x="5.18" y="-158.58" class="Y b">POLS 1337</tspan>
    <tspan x="5.18" y="-144.266" class="Y c">ENGL 1304</tspan>
    <tspan x="5.18" y="-129.952" class="Y d">CHEM 1331</tspan>
    <tspan x="5.18" y="-115.638" class="Y e">ACCT 2331</tspan>
    <tspan x="5.18" y="-101.325" class="Y Z">MATH 2311</tspan>
    <tspan x="5.18" y="-87.011" class="Y d">CHEM 1332</tspan>
    <tspan x="5.18" y="-72.697" class="Y f">SOC  1300</tspan>
    <tspan x="5.18" y="-58.383" class="Y e">ECON 2304</tspan>
    <tspan x="5.18" y="-44.069" class="Y f">PHYS 1301</tspan>
    <tspan x="5.18" y="-29.755" class="Y Z">MATH 1314</tspan>
    <tspan x="5.18" y="-15.441" class="Y d">CHEM 1301</tspan>
    <tspan x="5.18" y="-1.127" class="Y f">MARK 3337</tspan>
    <tspan x="5.18" y="13.186" class="Y b">POLS 1337</tspan>
    <tspan x="5.18" y="27.5" class="Y c">ENGL 1304</tspan>
    <tspan x="5.18" y="41.814" class="Y d">CHEM 1331</tspan>
    <tspan x="5.18" y="56.128" class="Y e">ACCT 2331</tspan>
    <tspan x="5.18" y="70.442" class="Y Z">MATH 2311</tspan>
    <tspan x="5.18" y="84.756" class="Y d">CHEM 1332</tspan>
    <tspan x="5.18" y="99.07" class="Y f">SOC  1300</tspan>
    <tspan x="5.18" y="113.384" class="Y e">ECON 2304</tspan>
    <tspan x="5.18" y="127.697" class="Y f">PHYS 1301</tspan>
    <tspan x="5.18" y="142.011" class="Y Z">MATH 1314</tspan>
    <tspan x="5.18" y="156.325" class="Y d">CHEM 1301</tspan>
    <tspan x="5.18" y="170.639" class="Y f">MARK 3337</tspan>
    <tspan x="5.18" y="184.953" class="Y b">POLS 1337</tspan>
    <tspan x="5.18" y="199.267" class="Y c">ENGL 1304</tspan>
    <tspan x="5.18" y="213.581" class="Y d">CHEM 1331</tspan>
    <tspan x="5.18" y="227.895" class="Y e">ACCT 2331</tspan>
    <tspan x="5.18" y="242.209" class="Y Z">MATH 2311</tspan>
    <tspan x="5.18" y="256.522" class="Y d">CHEM 1332</tspan>
    <tspan x="5.18" y="270.836" class="Y f">SOC  1300</tspan>
    <tspan x="5.18" y="285.15" class="Y e">ECON 2304</tspan>
    <tspan x="5.18" y="299.464" class="Y f">PHYS 1301</tspan>
    <tspan x="5.18" y="313.778" class="Y Z">MATH 1314</tspan>
    <tspan x="5.18" y="328.092" class="Y d">CHEM 1301</tspan>
    <tspan x="5.18" y="342.406" class="Y f">MARK 3337</tspan>
  </text>
  <text xml:space="preserve" x="148.606" y="-158.602" class="h i j k">
    <animateTransform attributeName="transform" attributeType="XML" type="translate" from="0 0" to="0 171.97917" dur="10s" repeatCount="indefinite"/>
    <tspan y="-158.602" x="148.606" class="Y Z">MATH 1431</tspan>
    <tspan y="-144.288" x="148.606" class="Y g">GEOL 1330</tspan>
    <tspan y="-129.974" x="148.606" class="Y Z">MATH 1313</tspan>
    <tspan y="-115.66" x="148.606" class="Y Z">MATH 1310</tspan>
    <tspan y="-101.346" x="148.606" class="Y a">MANA 3335</tspan>
    <tspan y="-87.032" x="148.606" class="Y f">MARK 3336</tspan>
    <tspan y="-72.718" x="148.606" class="Y f">THEA 1331</tspan>
    <tspan y="-58.405" x="148.606" class="Y e">FINA 3332</tspan>
    <tspan y="-44.091" x="148.606" class="Y d">CHEM 3331</tspan>
    <tspan y="-29.777" x="148.606" class="Y g">BIOL 1362</tspan>
    <tspan y="-15.463" x="148.606" class="Y d">CHEM 1112</tspan>
    <tspan y="-1.149" x="148.606" class="Y a">PSYC 3301</tspan>
    <tspan y="13.165" x="148.606" class="Y Z">MATH 1431</tspan>
    <tspan y="27.479" x="148.606" class="Y g">GEOL 1330</tspan>
    <tspan y="41.793" x="148.606" class="Y Z">MATH 1313</tspan>
    <tspan y="56.106" x="148.606" class="Y Z">MATH 1310</tspan>
    <tspan y="70.42" x="148.606" class="Y a">MANA 3335</tspan>
    <tspan y="84.734" x="148.606" class="Y f">MARK 3336</tspan>
    <tspan y="99.048" x="148.606" class="Y f">THEA 1331</tspan>
    <tspan y="113.362" x="148.606" class="Y e">FINA 3332</tspan>
    <tspan y="127.676" x="148.606" class="Y d">CHEM 3331</tspan>
    <tspan y="141.99" x="148.606" class="Y g">BIOL 1362</tspan>
    <tspan y="156.304" x="148.606" class="Y d">CHEM 1112</tspan>
    <tspan y="170.617" x="148.606" class="Y a">PSYC 3301</tspan>
    <tspan y="184.931" x="148.606" class="Y Z">MATH 1431</tspan>
    <tspan y="199.245" x="148.606" class="Y g">GEOL 1330</tspan>
    <tspan y="213.559" x="148.606" class="Y Z">MATH 1313</tspan>
    <tspan y="227.873" x="148.606" class="Y Z">MATH 1310</tspan>
    <tspan y="242.187" x="148.606" class="Y a">MANA 3335</tspan>
    <tspan y="256.501" x="148.606" class="Y f">MARK 3336</tspan>
    <tspan y="270.815" x="148.606" class="Y f">THEA 1331</tspan>
    <tspan y="285.128" x="148.606" class="Y e">FINA 3332</tspan>
    <tspan y="299.442" x="148.606" class="Y d">CHEM 3331</tspan>
    <tspan y="313.756" x="148.606" class="Y g">BIOL 1362</tspan>
    <tspan y="328.07" x="148.606" class="Y d">CHEM 1112</tspan>
    <tspan y="342.384" x="148.606" class="Y a">PSYC 3301</tspan>
  </text>
  <text xml:space="preserve" x="76.923" y="-158.611" class="h i j k">
    <animateTransform attributeName="transform" attributeType="XML" type="translate" from="0 0" to="0 -171.97917" dur="10s" repeatCount="indefinite"/>
    <tspan x="76.923" y="-158.611" class="Y b">KIN  1304</tspan>
    <tspan x="76.923" y="-144.297" class="Y b">HIST 1378</tspan>
    <tspan x="76.923" y="-129.983" class="Y c">ENGL 1303</tspan>
    <tspan x="76.923" y="-115.669" class="Y e">STAT 3331</tspan>
    <tspan x="76.923" y="-101.355" class="Y a">PSYC 1300</tspan>
    <tspan x="76.923" y="-87.041" class="Y c">IDNS 2197</tspan>
    <tspan x="76.923" y="-72.727" class="Y a">INTB 3354</tspan>
    <tspan x="76.923" y="-58.413" class="Y a">SCM  3301</tspan>
    <tspan x="76.923" y="-44.1" class="Y c">GENB 4350</tspan>
    <tspan x="76.923" y="-29.786" class="Y b">KIN  1352</tspan>
    <tspan x="76.923" y="-15.472" class="Y Z">MATH 2433</tspan>
    <tspan x="76.923" y="-1.158" class="Y e">ECON 2305</tspan>
    <tspan x="76.923" y="13.156" class="Y b">KIN  1304</tspan>
    <tspan x="76.923" y="27.47" class="Y b">HIST 1378</tspan>
    <tspan x="76.923" y="41.784" class="Y c">ENGL 1303</tspan>
    <tspan x="76.923" y="56.098" class="Y e">STAT 3331</tspan>
    <tspan x="76.923" y="70.411" class="Y a">PSYC 1300</tspan>
    <tspan x="76.923" y="84.725" class="Y c">IDNS 2197</tspan>
    <tspan x="76.923" y="99.039" class="Y a">INTB 3354</tspan>
    <tspan x="76.923" y="113.353" class="Y a">SCM  3301</tspan>
    <tspan x="76.923" y="127.667" class="Y c">GENB 4350</tspan>
    <tspan x="76.923" y="141.981" class="Y b">KIN  1352</tspan>
    <tspan x="76.923" y="156.295" class="Y Z">MATH 2433</tspan>
    <tspan x="76.923" y="170.609" class="Y e">ECON 2305</tspan>
    <tspan x="76.923" y="184.922" class="Y b">KIN  1304</tspan>
    <tspan x="76.923" y="199.236" class="Y b">HIST 1378</tspan>
    <tspan x="76.923" y="213.55" class="Y c">ENGL 1303</tspan>
    <tspan x="76.923" y="227.864" class="Y e">STAT 3331</tspan>
    <tspan x="76.923" y="242.178" class="Y a">PSYC 1300</tspan>
    <tspan x="76.923" y="256.492" class="Y c">IDNS 2197</tspan>
    <tspan x="76.923" y="270.806" class="Y a">INTB 3354</tspan>
    <tspan x="76.923" y="285.12" class="Y a">SCM  3301</tspan>
    <tspan x="76.923" y="299.433" class="Y c">GENB 4350</tspan>
    <tspan x="76.923" y="313.747" class="Y b">KIN  1352</tspan>
    <tspan x="76.923" y="328.061" class="Y Z">MATH 2433</tspan>
    <tspan x="76.923" y="342.375" class="Y e">ECON 2305</tspan>
  </text>
  <text xml:space="preserve" x="220.356" y="-158.609" class="h i j k">
    <animateTransform attributeName="transform" attributeType="XML" type="translate" from="0 0" to="0 -171.97917" dur="10s" repeatCount="indefinite"/>
    <tspan x="220.356" y="-158.609" class="Y b">POLS 1336</tspan>
    <tspan x="220.356" y="-144.295" class="Y c">GENB 3302</tspan>
    <tspan x="220.356" y="-129.982" class="Y Z">MATH 1330</tspan>
    <tspan x="220.356" y="-115.668" class="Y Z">MATH 1432</tspan>
    <tspan x="220.356" y="-101.354" class="Y g">BIOL 3301</tspan>
    <tspan x="220.356" y="-87.04" class="Y a">MIS  3300</tspan>
    <tspan x="220.356" y="-72.726" class="Y b">HIST 1376</tspan>
    <tspan x="220.356" y="-58.412" class="Y d">CHEM 1111</tspan>
    <tspan x="220.356" y="-44.098" class="Y g">BIOL 1361</tspan>
    <tspan x="220.356" y="-29.784" class="Y e">ACCT 2332</tspan>
    <tspan x="220.356" y="-15.47" class="Y a">INTB 3355</tspan>
    <tspan x="220.356" y="-1.157" class="Y c">TELS 3363</tspan>
    <tspan x="220.356" y="13.157" class="Y b">POLS 1336</tspan>
    <tspan x="220.356" y="27.471" class="Y c">GENB 3302</tspan>
    <tspan x="220.356" y="41.785" class="Y Z">MATH 1330</tspan>
    <tspan x="220.356" y="56.099" class="Y Z">MATH 1432</tspan>
    <tspan x="220.356" y="70.413" class="Y g">BIOL 3301</tspan>
    <tspan x="220.356" y="84.727" class="Y a">MIS  3300</tspan>
    <tspan x="220.356" y="99.041" class="Y b">HIST 1376</tspan>
    <tspan x="220.356" y="113.354" class="Y d">CHEM 1111</tspan>
    <tspan x="220.356" y="127.668" class="Y g">BIOL 1361</tspan>
    <tspan x="220.356" y="141.982" class="Y e">ACCT 2332</tspan>
    <tspan x="220.356" y="156.296" class="Y a">INTB 3355</tspan>
    <tspan x="220.356" y="170.61" class="Y c">TELS 3363</tspan>
    <tspan x="220.356" y="184.924" class="Y b">POLS 1336</tspan>
    <tspan x="220.356" y="199.238" class="Y c">GENB 3302</tspan>
    <tspan x="220.356" y="213.552" class="Y Z">MATH 1330</tspan>
    <tspan x="220.356" y="227.865" class="Y Z">MATH 1432</tspan>
    <tspan x="220.356" y="242.179" class="Y g">BIOL 3301</tspan>
    <tspan x="220.356" y="256.493" class="Y a">MIS  3300</tspan>
    <tspan x="220.356" y="270.807" class="Y b">HIST 1376</tspan>
    <tspan x="220.356" y="285.121" class="Y d">CHEM 1111</tspan>
    <tspan x="220.356" y="299.435" class="Y g">BIOL 1361</tspan>
    <tspan x="220.356" y="313.749" class="Y e">ACCT 2332</tspan>
    <tspan x="220.356" y="328.063" class="Y a">INTB 3355</tspan>
    <tspan x="220.356" y="342.376" class="Y c">TELS 3363 </tspan>
  </text>
</svg>