<svg xmlns="http://www.w3.org/2000/svg" width="288" height="288"><rect x="0" y="0" width="100%" height="100%" fill="rgb(73,134,122)"></rect><circle cx="24" cy="24" r="20" fill="none" stroke="#222" opacity="0.098" stroke-width="8px"></circle><circle cx="24" cy="24" r="10" fill="#ddd" fill-opacity="0.02"></circle><circle cx="72" cy="24" r="20" fill="none" stroke="#ddd" opacity="0.05466666666666667" stroke-width="8px"></circle><circle cx="72" cy="24" r="10" fill="#ddd" fill-opacity="0.08933333333333333"></circle><circle cx="120" cy="24" r="20" fill="none" stroke="#222" opacity="0.028666666666666667" stroke-width="8px"></circle><circle cx="120" cy="24" r="10" fill="#222" fill-opacity="0.06333333333333334"></circle><circle cx="168" cy="24" r="20" fill="none" stroke="#222" opacity="0.06333333333333334" stroke-width="8px"></circle><circle cx="168" cy="24" r="10" fill="#ddd" fill-opacity="0.10666666666666667"></circle><circle cx="216" cy="24" r="20" fill="none" stroke="#ddd" opacity="0.03733333333333333" stroke-width="8px"></circle><circle cx="216" cy="24" r="10" fill="#ddd" fill-opacity="0.12400000000000001"></circle><circle cx="264" cy="24" r="20" fill="none" stroke="#ddd" opacity="0.07200000000000001" stroke-width="8px"></circle><circle cx="264" cy="24" r="10" fill="#ddd" fill-opacity="0.05466666666666667"></circle><circle cx="24" cy="72" r="20" fill="none" stroke="#222" opacity="0.08066666666666666" stroke-width="8px"></circle><circle cx="24" cy="72" r="10" fill="#ddd" fill-opacity="0.07200000000000001"></circle><circle cx="72" cy="72" r="20" fill="none" stroke="#222" opacity="0.11533333333333334" stroke-width="8px"></circle><circle cx="72" cy="72" r="10" fill="#ddd" fill-opacity="0.12400000000000001"></circle><circle cx="120" cy="72" r="20" fill="none" stroke="#222" opacity="0.06333333333333334" stroke-width="8px"></circle><circle cx="120" cy="72" r="10" fill="#222" fill-opacity="0.08066666666666666"></circle><circle cx="168" cy="72" r="20" fill="none" stroke="#ddd" opacity="0.08933333333333333" stroke-width="8px"></circle><circle cx="168" cy="72" r="10" fill="#222" fill-opacity="0.08066666666666666"></circle><circle cx="216" cy="72" r="20" fill="none" stroke="#ddd" opacity="0.07200000000000001" stroke-width="8px"></circle><circle cx="216" cy="72" r="10" fill="#ddd" fill-opacity="0.05466666666666667"></circle><circle cx="264" cy="72" r="20" fill="none" stroke="#222" opacity="0.098" stroke-width="8px"></circle><circle cx="264" cy="72" r="10" fill="#ddd" fill-opacity="0.03733333333333333"></circle><circle cx="24" cy="120" r="20" fill="none" stroke="#ddd" opacity="0.07200000000000001" stroke-width="8px"></circle><circle cx="24" cy="120" r="10" fill="#ddd" fill-opacity="0.02"></circle><circle cx="72" cy="120" r="20" fill="none" stroke="#ddd" opacity="0.07200000000000001" stroke-width="8px"></circle><circle cx="72" cy="120" r="10" fill="#ddd" fill-opacity="0.07200000000000001"></circle><circle cx="120" cy="120" r="20" fill="none" stroke="#ddd" opacity="0.08933333333333333" stroke-width="8px"></circle><circle cx="120" cy="120" r="10" fill="#222" fill-opacity="0.15"></circle><circle cx="168" cy="120" r="20" fill="none" stroke="#ddd" opacity="0.08933333333333333" stroke-width="8px"></circle><circle cx="168" cy="120" r="10" fill="#222" fill-opacity="0.15"></circle><circle cx="216" cy="120" r="20" fill="none" stroke="#222" opacity="0.11533333333333334" stroke-width="8px"></circle><circle cx="216" cy="120" r="10" fill="#ddd" fill-opacity="0.03733333333333333"></circle><circle cx="264" cy="120" r="20" fill="none" stroke="#222" opacity="0.13266666666666665" stroke-width="8px"></circle><circle cx="264" cy="120" r="10" fill="#222" fill-opacity="0.11533333333333334"></circle><circle cx="24" cy="168" r="20" fill="none" stroke="#ddd" opacity="0.07200000000000001" stroke-width="8px"></circle><circle cx="24" cy="168" r="10" fill="#ddd" fill-opacity="0.02"></circle><circle cx="72" cy="168" r="20" fill="none" stroke="#222" opacity="0.13266666666666665" stroke-width="8px"></circle><circle cx="72" cy="168" r="10" fill="#ddd" fill-opacity="0.10666666666666667"></circle><circle cx="120" cy="168" r="20" fill="none" stroke="#ddd" opacity="0.10666666666666667" stroke-width="8px"></circle><circle cx="120" cy="168" r="10" fill="#222" fill-opacity="0.13266666666666665"></circle><circle cx="168" cy="168" r="20" fill="none" stroke="#ddd" opacity="0.02" stroke-width="8px"></circle><circle cx="168" cy="168" r="10" fill="#ddd" fill-opacity="0.07200000000000001"></circle><circle cx="216" cy="168" r="20" fill="none" stroke="#222" opacity="0.11533333333333334" stroke-width="8px"></circle><circle cx="216" cy="168" r="10" fill="#222" fill-opacity="0.13266666666666665"></circle><circle cx="264" cy="168" r="20" fill="none" stroke="#ddd" opacity="0.03733333333333333" stroke-width="8px"></circle><circle cx="264" cy="168" r="10" fill="#222" fill-opacity="0.11533333333333334"></circle><circle cx="24" cy="216" r="20" fill="none" stroke="#222" opacity="0.15" stroke-width="8px"></circle><circle cx="24" cy="216" r="10" fill="#ddd" fill-opacity="0.08933333333333333"></circle><circle cx="72" cy="216" r="20" fill="none" stroke="#222" opacity="0.15" stroke-width="8px"></circle><circle cx="72" cy="216" r="10" fill="#ddd" fill-opacity="0.08933333333333333"></circle><circle cx="120" cy="216" r="20" fill="none" stroke="#ddd" opacity="0.07200000000000001" stroke-width="8px"></circle><circle cx="120" cy="216" r="10" fill="#ddd" fill-opacity="0.07200000000000001"></circle><circle cx="168" cy="216" r="20" fill="none" stroke="#ddd" opacity="0.02" stroke-width="8px"></circle><circle cx="168" cy="216" r="10" fill="#ddd" fill-opacity="0.07200000000000001"></circle><circle cx="216" cy="216" r="20" fill="none" stroke="#ddd" opacity="0.03733333333333333" stroke-width="8px"></circle><circle cx="216" cy="216" r="10" fill="#222" fill-opacity="0.098"></circle><circle cx="264" cy="216" r="20" fill="none" stroke="#ddd" opacity="0.05466666666666667" stroke-width="8px"></circle><circle cx="264" cy="216" r="10" fill="#ddd" fill-opacity="0.07200000000000001"></circle><circle cx="24" cy="264" r="20" fill="none" stroke="#222" opacity="0.08066666666666666" stroke-width="8px"></circle><circle cx="24" cy="264" r="10" fill="#ddd" fill-opacity="0.08933333333333333"></circle><circle cx="72" cy="264" r="20" fill="none" stroke="#222" opacity="0.08066666666666666" stroke-width="8px"></circle><circle cx="72" cy="264" r="10" fill="#222" fill-opacity="0.06333333333333334"></circle><circle cx="120" cy="264" r="20" fill="none" stroke="#ddd" opacity="0.12400000000000001" stroke-width="8px"></circle><circle cx="120" cy="264" r="10" fill="#222" fill-opacity="0.11533333333333334"></circle><circle cx="168" cy="264" r="20" fill="none" stroke="#ddd" opacity="0.07200000000000001" stroke-width="8px"></circle><circle cx="168" cy="264" r="10" fill="#222" fill-opacity="0.08066666666666666"></circle><circle cx="216" cy="264" r="20" fill="none" stroke="#ddd" opacity="0.05466666666666667" stroke-width="8px"></circle><circle cx="216" cy="264" r="10" fill="#ddd" fill-opacity="0.07200000000000001"></circle><circle cx="264" cy="264" r="20" fill="none" stroke="#ddd" opacity="0.12400000000000001" stroke-width="8px"></circle><circle cx="264" cy="264" r="10" fill="#ddd" fill-opacity="0.03733333333333333"></circle></svg>
